<svg width="184" height="20" viewBox="0 0 184 20" fill="none" xmlns="http://www.w3.org/2000/svg">
<g id="Social media">
<g id="Twitter">
<mask id="mask0_0_24" style="mask-type:luminance" maskUnits="userSpaceOnUse" x="50" y="0" width="25" height="20">
<path id="Clip 2" fill-rule="evenodd" clip-rule="evenodd" d="M50 0.043457H74.4606V19.9618H50V0.043457Z" fill="white"/>
</mask>
<g mask="url(#mask0_0_24)">
<path id="Fill 1" fill-rule="evenodd" clip-rule="evenodd" d="M57.6598 19.9616C66.9089 19.9616 71.9666 12.2992 71.9666 5.65478C71.9666 5.43727 71.9621 5.22053 71.9524 5.0049C72.9341 4.29521 73.7875 3.4094 74.4606 2.40106C73.5597 2.80163 72.5899 3.07103 71.573 3.19281C72.6111 2.57027 73.4083 1.58557 73.7841 0.411611C72.8125 0.987534 71.7365 1.40605 70.5911 1.63199C69.6736 0.654776 68.3671 0.043457 66.9205 0.043457C64.1438 0.043457 61.892 2.29521 61.892 5.07099C61.892 5.46576 61.9361 5.84945 62.0224 6.21761C57.8432 6.00739 54.1375 4.00667 51.6577 0.963937C51.2259 1.70715 50.9768 2.57046 50.9768 3.49147C50.9768 5.23588 51.8647 6.77607 53.2144 7.67684C52.3895 7.65156 51.6146 7.42504 50.9371 7.04811C50.9364 7.06931 50.9364 7.08969 50.9364 7.11219C50.9364 9.54753 52.6695 11.5809 54.9706 12.0415C54.5481 12.1564 54.1034 12.2184 53.6447 12.2184C53.3212 12.2184 53.006 12.1866 52.6995 12.1277C53.3397 14.1257 55.1962 15.5795 57.397 15.6201C55.676 16.9691 53.5078 17.7726 51.1517 17.7726C50.7462 17.7726 50.3457 17.7494 49.952 17.7031C52.1774 19.1294 54.8201 19.9618 57.66 19.9618" fill="#1DA1F2"/>
</g>
</g>
<g id="Facebook">
<g id="Group 3">
<mask id="mask1_0_24" style="mask-type:luminance" maskUnits="userSpaceOnUse" x="0" y="0" width="20" height="20">
<path id="Clip 2_2" fill-rule="evenodd" clip-rule="evenodd" d="M0.00234985 0H20V20H0.00234985V0Z" fill="white"/>
</mask>
<g mask="url(#mask1_0_24)">
<path id="Fill 1_2" fill-rule="evenodd" clip-rule="evenodd" d="M18.896 3.70598e-08H1.10305C0.493789 0.000312537 -0.000156213 0.494531 3.70598e-08 1.10398V18.897C0.000312537 19.5062 0.494531 20.0002 1.10398 20H18.896C19.5056 20.0002 19.9998 19.5061 20 18.8965C20 18.8963 20 18.8962 20 18.896V1.10305C19.9997 0.493789 19.5055 -0.000156213 18.896 3.70598e-08Z" fill="#4267B2"/>
</g>
</g>
<path id="Fill 4" fill-rule="evenodd" clip-rule="evenodd" d="M13.8086 20V12.2657H16.416L16.8066 9.23832H13.8086V7.31023C13.8086 6.43574 14.0514 5.83988 15.3053 5.83988H16.8945V3.13953C16.618 3.10277 15.6694 3.02051 14.5656 3.02051C12.2609 3.02051 10.6836 4.42676 10.6836 7.01039V9.23832H8.08594V12.2657H10.6836V20H13.8086Z" fill="white"/>
</g>
<g id="Linkedin">
<g id="Group 4">
<mask id="mask2_0_24" style="mask-type:luminance" maskUnits="userSpaceOnUse" x="163" y="0" width="6" height="20">
<path id="Clip 2_3" fill-rule="evenodd" clip-rule="evenodd" d="M163.035 0.00146484H168.071V19.975H163.035V0.00146484Z" fill="white"/>
</mask>
<g mask="url(#mask2_0_24)">
<path id="Fill 1_3" fill-rule="evenodd" clip-rule="evenodd" d="M163.297 19.9749H167.777V6.49707H163.297V19.9749Z" fill="#006699"/>
<path id="Fill 3" fill-rule="evenodd" clip-rule="evenodd" d="M165.566 0C164.034 0 163.032 1.0062 163.032 2.32878C163.032 3.62212 164.004 4.65706 165.508 4.65706H165.537C167.099 4.65706 168.071 3.62212 168.071 2.32878C168.042 1.0062 167.099 0 165.566 0Z" fill="#006699"/>
</g>
</g>
<path id="Fill 5" fill-rule="evenodd" clip-rule="evenodd" d="M178.773 6.18115C176.396 6.18115 175.331 7.48744 174.735 8.40593V6.49748H170.255V19.9753H174.735V12.4487C174.735 12.0458 174.764 11.6435 174.883 11.3554C175.206 10.5507 175.944 9.71715 177.181 9.71715C178.802 9.71715 179.451 10.9532 179.451 12.765V19.9753H183.93V12.2473C183.93 8.10748 181.72 6.18115 178.773 6.18115Z" fill="#006699"/>
</g>
<g id="Youtube">
<g id="Group 3_2">
<mask id="mask3_0_24" style="mask-type:luminance" maskUnits="userSpaceOnUse" x="104" y="0" width="30" height="20">
<path id="Clip 2_4" fill-rule="evenodd" clip-rule="evenodd" d="M104.512 0H133.032V19.9713H104.512V0Z" fill="white"/>
</mask>
<g mask="url(#mask3_0_24)">
<path id="Fill 1_4" fill-rule="evenodd" clip-rule="evenodd" d="M132.444 3.12501C132.115 1.90306 131.152 0.939889 129.931 0.610864C127.698 0 118.77 0 118.77 0C118.77 0 109.842 0 107.61 0.587577C106.411 0.916379 105.425 1.90329 105.096 3.12501C104.508 5.35688 104.508 9.98563 104.508 9.98563C104.508 9.98563 104.508 14.6377 105.096 16.8463C105.425 18.068 106.388 19.0314 107.61 19.3604C109.865 19.9713 118.77 19.9713 118.77 19.9713C118.77 19.9713 127.698 19.9713 129.931 19.3837C131.152 19.0549 132.115 18.0915 132.444 16.8697C133.032 14.6377 133.032 10.0091 133.032 10.0091C133.032 10.0091 133.055 5.35688 132.444 3.12501Z" fill="#FF0000"/>
</g>
</g>
<path id="Fill 4_2" fill-rule="evenodd" clip-rule="evenodd" d="M115.927 14.2619L123.352 9.98568L115.927 5.70947V14.2619Z" fill="white"/>
</g>
</g>
</svg>
